<svg width="238" height="177" viewBox="0 0 238 177" fill="none" xmlns="http://www.w3.org/2000/svg">
<path d="M211.867 8H231.924L229.211 17.2067H219.772L216.468 28.4199H225.671L222.957 37.5085H213.754L210.215 49.3119H220.008L216.468 58.9907H196.882L211.867 8Z" fill="#41414D"/>
<path d="M124.946 59.0787L128.053 49.7433L140.063 8.036L150.564 8.00012L138.318 49.8263L150.669 49.8263L147.876 59.1018L118.174 59.1018L124.946 59.0787Z" fill="#41414D"/>
<path d="M186.144 8H206.202L203.488 17.2067H194.049L190.746 28.4199H199.948L197.235 37.5085H188.032L184.492 49.3119L181.568 58.9907H171.16L186.144 8Z" fill="#41414D"/>
<path d="M168.996 8H179.734L176.901 17.2067L173.597 28.4199L170.883 37.5085L167.344 49.3119L164.3 58.9907H154.011L168.996 8Z" fill="#41414D"/>
<path d="M54.7861 157.299H37.7229L47.9746 122.401H39.3054L25.0632 169H8L36.2093 74.6325H53.2724L43.64 107.74H52.3092L66.001 63H83.0642L54.7861 157.299Z" fill="#1AC92C"/>
<path d="M84.4403 74.6325H116.984L112.099 89.5H97.3064L91.9398 107.671H106.801L102.123 122.333H87.6052L81.8946 141.536H97.7193L92.0086 157.23H60.084L84.4403 74.6325Z" fill="#1AC92C"/>
<path d="M112.168 169H94.967L122.419 74.6325H153.656C157.371 74.6325 159.848 75.665 161.156 77.7987C162.463 79.9325 162.669 82.3416 161.844 85.0948L153.587 113.178C153.174 114.417 152.418 115.518 151.248 116.551C150.078 117.583 148.427 118.065 146.294 118.065C147.601 118.271 148.702 119.097 149.597 120.543C150.491 121.988 150.491 124.191 149.597 127.151L140.721 157.299H123.589L133.084 124.879C133.29 124.191 133.359 123.571 133.153 122.952C132.946 122.333 132.327 122.057 131.295 122.057H125.584L112.168 169ZM135.01 109.874C135.836 109.874 136.593 109.668 137.35 109.255C138.038 108.842 138.588 108.016 139.001 106.708L143.542 91.3585C144.23 89.0871 143.336 87.9169 140.927 87.9169H135.561L129.093 109.874H135.01Z" fill="#1AC92C"/>
<path d="M203.814 74.6325C206.497 74.6325 208.423 75.5961 209.662 77.5234C210.9 79.4507 211.175 81.6533 210.487 84.0624L191.498 148.557C190.466 151.999 188.677 154.27 186.2 155.509C183.723 156.748 181.04 157.299 178.219 157.299H157.853C156.408 157.299 155.101 157.023 153.863 156.542C152.624 156.06 151.661 155.303 150.835 154.339C150.01 153.375 149.528 152.136 149.253 150.76C148.978 149.383 149.115 147.8 149.666 146.01L168.311 82.6858C168.93 80.2767 170.169 78.2806 172.027 76.8351C173.884 75.3897 176.224 74.6325 179.044 74.6325H203.814ZM185.925 87.9169C185.099 87.9169 184.48 88.1234 184.136 88.4676C183.723 88.8806 183.517 89.3624 183.31 89.913L168.105 141.399C167.692 142.775 168.242 143.464 169.687 143.464H174.091C175.535 143.464 176.43 142.775 176.843 141.399L191.979 89.9819C192.323 88.5364 191.773 87.8481 190.259 87.8481H185.925V87.9169Z" fill="#1AC92C"/>
</svg>
