<svg width="250" height="250" viewBox="0 0 250 250" fill="none" xmlns="http://www.w3.org/2000/svg">
<path d="M125 0C56 0 0 56 0 125C0 194 56 250 125 250C194 250 250 194 250 125C250 56 194 0 125 0ZM125 37.5C145.75 37.5 162.5 54.25 162.5 75C162.5 95.75 145.75 112.5 125 112.5C104.25 112.5 87.5 95.75 87.5 75C87.5 54.25 104.25 37.5 125 37.5ZM125 215C93.75 215 66.125 199 50 174.75C50.375 149.875 100 136.25 125 136.25C149.875 136.25 199.625 149.875 200 174.75C183.875 199 156.25 215 125 215Z" fill="white"/>
</svg>
